# xmcd
#
# Track frame offsets:
#	150
#	22895
#	33075
#	47497
#	61972
#	71737
#	89312
#	101952
#	110907
#	128810
#	139810
#	153347
#
# Disc length: 2216 seconds
#
# Revision: 0
# Processed by: cddbd v1.4PL0 Copyright (c) Steve Scherf et al.
# Submitted via: EasyCDDAExtractor 4.6.9.1
#
DISCID=a108a60c
DTITLE=Selection - Truckers Favourites
DYEAR=1900
DGENRE=Country
TTITLE0=Teddy Bear
TTITLE1=Six Days On The Road
TTITLE2=Phantom 309
TTITLE3=Highway 40 Blues
TTITLE4=I'll Have Another Cup Of Coffee
TTITLE5=Convoy
TTITLE6=Eighteen Wheels
TTITLE7=Truck Driving Man
TTITLE8=Wolf Creek Pass
TTITLE9=Truckers Lady
TTITLE10=Big City
TTITLE11=Me And Old CB
EXTD=
EXTT0=
EXTT1=
EXTT2=
EXTT3=
EXTT4=
EXTT5=
EXTT6=
EXTT7=
EXTT8=
EXTT9=
EXTT10=
EXTT11=
PLAYORDER=
